<?xml version="1.0" encoding="UTF-8"?>
<svg viewBox="0 0 960 740" xmlns="http://www.w3.org/2000/svg" role="img"
         aria-labelledby="package-dependencies-title package-dependencies-desc" id="package-dependencies-root">
      <title id="package-dependencies-title">Symphony package dependencies</title>
      <desc id="package-dependencies-desc">Ranked dependency graph of the eight npm workspaces. Arrows point from the depending package down to the package it depends on; every package converges on @symphony/domain, and apps/cli sits at the top as the host entry point.</desc>

      <defs>
        <style>
          #package-dependencies-root .name { font-family: 'Geist', system-ui, sans-serif; font-weight: 600; font-size: 13px; fill: #2d3142; }
          #package-dependencies-root .sub { font-family: 'Geist Mono', ui-monospace, monospace; font-size: 9px; fill: #4f5d75; }
          #package-dependencies-root .badge { font-family: 'Geist Mono', ui-monospace, monospace; font-size: 8px; fill: #4f5d75; }
          #package-dependencies-root .note-key { font-family: 'Geist Mono', ui-monospace, monospace; font-size: 8px; font-weight: 500; letter-spacing: 0.18em; fill: #4f5d75; }
          #package-dependencies-root .note { font-family: 'Geist Mono', ui-monospace, monospace; font-size: 8.5px; fill: #4f5d75; }
        </style>
        <marker id="pd-arrow" markerWidth="8" markerHeight="6" refX="7" refY="3" orient="auto"><polygon points="0 0, 8 3, 0 6" fill="#4f5d75"/></marker>
      </defs>

      <rect width="100%" height="100%" fill="#f5f5f5"/>

      <!-- Arrows (drawn before nodes) -->
      <line x1="480" y1="104" x2="480" y2="160" stroke="#4f5d75" stroke-width="1.2" marker-end="url(#pd-arrow)"/>

      <path d="M 564,76 H 862 Q 870,76 870,84 V 384" fill="none" stroke="#4f5d75" stroke-width="1.2" marker-end="url(#pd-arrow)"/>

      <line x1="480" y1="216" x2="480" y2="272" stroke="#4f5d75" stroke-width="1.2" marker-end="url(#pd-arrow)"/>

      <path d="M 564,200 H 584 Q 592,200 592,208 V 384" fill="none" stroke="#4f5d75" stroke-width="1.2" marker-end="url(#pd-arrow)"/>

      <path d="M 396,284 H 168 Q 160,284 160,292 V 384" fill="none" stroke="#4f5d75" stroke-width="1.2" marker-end="url(#pd-arrow)"/>

      <line x1="440" y1="328" x2="440" y2="384" stroke="#4f5d75" stroke-width="1.2" marker-end="url(#pd-arrow)"/>

      <path d="M 160,440 V 464 Q 160,472 168,472 H 432 Q 440,472 440,480 V 496" fill="none" stroke="#4f5d75" stroke-width="1.2" marker-end="url(#pd-arrow)"/>

      <path d="M 376,440 V 476 Q 376,484 384,484 H 472 Q 480,484 480,492 V 496" fill="none" stroke="#4f5d75" stroke-width="1.2" marker-end="url(#pd-arrow)"/>

      <path d="M 592,440 V 468 Q 592,476 584,476 H 528 Q 520,476 520,484 V 496" fill="none" stroke="#4f5d75" stroke-width="1.2" marker-end="url(#pd-arrow)"/>

      <path d="M 808,440 V 516 Q 808,524 800,524 H 572" fill="none" stroke="#4f5d75" stroke-width="1.2" marker-end="url(#pd-arrow)"/>

      <!-- Node: apps/cli -->
      <rect x="396" y="48" width="168" height="56" rx="6" fill="#ffffff" stroke="#2d3142" stroke-width="1"/>
      <rect x="524" y="56" width="32" height="12" rx="2" fill="#f5f5f5" stroke="rgba(45,49,66,0.20)" stroke-width="0.8"/>
      <text class="badge" x="540" y="65" text-anchor="middle">0 in</text>
      <text class="name" x="480" y="74" text-anchor="middle">apps/cli</text>
      <text class="sub" x="480" y="90" text-anchor="middle">host entry · SPEC §17/§18</text>

      <!-- Node: orchestrator -->
      <rect x="396" y="160" width="168" height="56" rx="6" fill="#ffffff" stroke="#2d3142" stroke-width="1"/>
      <rect x="524" y="168" width="32" height="12" rx="2" fill="#f5f5f5" stroke="rgba(45,49,66,0.20)" stroke-width="0.8"/>
      <text class="badge" x="540" y="177" text-anchor="middle">1 in</text>
      <text class="name" x="480" y="186" text-anchor="middle">orchestrator</text>
      <text class="sub" x="480" y="202" text-anchor="middle">scheduling · retry · state</text>

      <!-- Node: agent -->
      <rect x="396" y="272" width="168" height="56" rx="6" fill="#ffffff" stroke="#2d3142" stroke-width="1"/>
      <rect x="524" y="280" width="32" height="12" rx="2" fill="#f5f5f5" stroke="rgba(45,49,66,0.20)" stroke-width="0.8"/>
      <text class="badge" x="540" y="289" text-anchor="middle">1 in</text>
      <text class="name" x="480" y="298" text-anchor="middle">agent</text>
      <text class="sub" x="480" y="314" text-anchor="middle">runner · Codex session</text>

      <!-- Rank 1 nodes -->
      <rect x="76" y="384" width="168" height="56" rx="6" fill="#ffffff" stroke="#2d3142" stroke-width="1"/>
      <rect x="204" y="392" width="32" height="12" rx="2" fill="#f5f5f5" stroke="rgba(45,49,66,0.20)" stroke-width="0.8"/>
      <text class="badge" x="220" y="401" text-anchor="middle">1 in</text>
      <text class="name" x="160" y="410" text-anchor="middle">config</text>
      <text class="sub" x="160" y="426" text-anchor="middle">WORKFLOW · typed config</text>

      <rect x="292" y="384" width="168" height="56" rx="6" fill="#ffffff" stroke="#2d3142" stroke-width="1"/>
      <rect x="420" y="392" width="32" height="12" rx="2" fill="#f5f5f5" stroke="rgba(45,49,66,0.20)" stroke-width="0.8"/>
      <text class="badge" x="436" y="401" text-anchor="middle">1 in</text>
      <text class="name" x="376" y="410" text-anchor="middle">workspace</text>
      <text class="sub" x="376" y="426" text-anchor="middle">dirs · hooks · safety</text>

      <rect x="508" y="384" width="168" height="56" rx="6" fill="#ffffff" stroke="#2d3142" stroke-width="1"/>
      <rect x="636" y="392" width="32" height="12" rx="2" fill="#f5f5f5" stroke="rgba(45,49,66,0.20)" stroke-width="0.8"/>
      <text class="badge" x="652" y="401" text-anchor="middle">1 in</text>
      <text class="name" x="592" y="410" text-anchor="middle">tracker</text>
      <text class="sub" x="592" y="426" text-anchor="middle">provider adapters</text>

      <rect x="724" y="384" width="168" height="56" rx="6" fill="#ffffff" stroke="#2d3142" stroke-width="1"/>
      <rect x="852" y="392" width="32" height="12" rx="2" fill="#f5f5f5" stroke="rgba(45,49,66,0.20)" stroke-width="0.8"/>
      <text class="badge" x="868" y="401" text-anchor="middle">1 in</text>
      <text class="name" x="808" y="410" text-anchor="middle">observability</text>
      <text class="sub" x="808" y="426" text-anchor="middle">logs · snapshot</text>

      <!-- Node: domain (shared base, leaf) -->
      <rect x="396" y="496" width="168" height="56" rx="6" fill="rgba(45,49,66,0.05)" stroke="#4f5d75" stroke-width="1"/>
      <rect x="524" y="504" width="32" height="12" rx="2" fill="#f5f5f5" stroke="rgba(45,49,66,0.20)" stroke-width="0.8"/>
      <text class="badge" x="540" y="513" text-anchor="middle">4 in</text>
      <text class="name" x="480" y="522" text-anchor="middle">domain</text>
      <text class="sub" x="480" y="538" text-anchor="middle">shared contracts · no deps</text>

      <!-- Notes -->
      <line x1="40" y1="580" x2="920" y2="580" stroke="rgba(45,49,66,0.10)" stroke-width="0.8"/>
      <text class="note-key" x="40" y="600">NOTES</text>
      <text class="note" x="40" y="620">Arrows point from the depending package to the package it depends on.</text>
      <text class="note" x="40" y="638">Edges show covering relations only; transitive edges (e.g. apps/cli → config) are omitted for density.</text>
      <text class="note" x="40" y="656">devDependency test-only edges omitted: tracker → config, workspace → config, orchestrator → observability.</text>
      <text class="note" x="40" y="674">Hard constraints: tracker never depends on orchestrator; agent owns no scheduler or retry policy.</text>
      <text class="note" x="40" y="692">observability consumes the read-only runtime snapshot contract and never writes back into scheduling authority.</text>
    </svg>
